<?xml version="1.0" standalone="no"?>
<!DOCTYPE svg PUBLIC "-//W3C//DTD SVG 20010904//EN"
 "http://www.w3.org/TR/2001/REC-SVG-20010904/DTD/svg10.dtd">
<svg version="1.0" xmlns="http://www.w3.org/2000/svg"
 width="2734.000000pt" height="2734.000000pt" viewBox="0 0 2734.000000 2734.000000"
 preserveAspectRatio="xMidYMid meet">

<g transform="translate(0.000000,2734.000000) scale(0.100000,-0.100000)"
fill="#000000" stroke="none">
<path d="M13155 27324 c-397 -19 -672 -39 -995 -75 -1820 -199 -3589 -768
-5187 -1668 -1415 -797 -2674 -1838 -3734 -3086 -2019 -2379 -3165 -5399
-3227 -8505 -16 -786 23 -1487 124 -2215 268 -1932 949 -3784 2002 -5440 795
-1250 1825 -2400 2987 -3331 1369 -1098 2930 -1919 4605 -2424 1966 -591 4067
-731 6115 -405 2444 389 4751 1450 6650 3059 538 456 1151 1069 1611 1611 835
984 1550 2126 2071 3310 551 1250 913 2582 1068 3930 120 1045 118 2169 -5
3208 -424 3572 -2245 6828 -5075 9079 -1816 1444 -3964 2398 -6250 2777 -429
71 -866 121 -1365 157 -208 14 -1197 27 -1395 18z m4350 -8934 c2442 -43 4185
-119 5705 -246 991 -82 1687 -206 1742 -308 6 -11 8 -51 6 -92 l-5 -72 -97
-136 c-53 -75 -106 -141 -117 -146 -11 -6 -42 -14 -69 -17 -28 -3 -47 -10 -43
-15 3 -6 55 -9 126 -7 l121 4 53 -73 c97 -135 121 -286 67 -413 -22 -54 -27
-80 -29 -164 -1 -68 -7 -112 -18 -139 -24 -56 -22 -82 22 -211 22 -63 45 -152
51 -197 17 -124 38 -186 81 -247 62 -86 53 -124 -50 -226 -61 -59 -81 -98 -81
-158 0 -17 -12 -41 -32 -62 -39 -42 -221 -160 -328 -213 -86 -42 -76 -42 -370
-24 -107 7 -274 17 -370 22 -326 19 -545 39 -669 60 -68 11 -131 19 -140 17
-12 -4 -11 -5 4 -6 13 -1 21 -8 22 -20 1 -11 11 -50 22 -88 11 -37 25 -99 31
-137 12 -78 27 -110 82 -179 21 -28 46 -64 55 -80 l15 -31 -66 -64 c-84 -82
-96 -106 -103 -201 -6 -70 -9 -78 -40 -107 -50 -46 -313 -228 -348 -242 -45
-17 -1236 -356 -1655 -471 -713 -195 -1608 -422 -2620 -666 -763 -183 -666
-165 -1435 -270 -1634 -224 -1913 -266 -1945 -288 -15 -10 33 -13 268 -15 664
-7 1273 41 2657 208 815 99 1095 130 1485 165 96 9 230 23 298 31 98 13 133
13 171 4 114 -27 301 -189 340 -295 28 -75 24 -127 -19 -221 -46 -102 -86
-159 -141 -200 -27 -21 -46 -41 -41 -45 4 -4 35 -9 69 -11 49 -3 68 -10 89
-29 51 -47 84 -144 105 -309 12 -88 11 -91 -32 -197 -11 -26 -11 -42 -1 -78
17 -64 15 -107 -8 -165 -26 -67 -25 -122 5 -208 13 -39 29 -111 35 -161 12
-110 24 -141 112 -292 37 -65 68 -127 68 -138 0 -16 -16 -29 -65 -53 -36 -17
-70 -39 -76 -49 -5 -10 -12 -56 -15 -101 -3 -46 -11 -92 -19 -104 -7 -11 -35
-29 -62 -39 -66 -25 -87 -39 -168 -113 -116 -106 -168 -126 -388 -147 -89 -9
-542 -65 -1007 -125 -1400 -181 -1579 -203 -2038 -249 -190 -20 -302 -35 -321
-45 -17 -9 -41 -37 -56 -65 -15 -27 -40 -58 -56 -70 -16 -12 -38 -40 -50 -64
-12 -23 -33 -54 -47 -69 l-26 -28 60 0 c71 0 78 -6 144 -115 65 -106 110 -206
110 -243 0 -48 -23 -96 -75 -155 -51 -58 -53 -70 -29 -176 15 -66 15 -77 0
-136 -28 -110 -20 -158 52 -316 16 -36 40 -111 53 -165 21 -93 25 -102 72
-149 55 -56 69 -83 56 -107 -5 -9 -42 -36 -82 -61 -40 -25 -78 -56 -84 -69 -6
-13 -14 -56 -17 -96 -6 -89 -24 -118 -109 -168 -34 -21 -93 -70 -132 -109 -53
-55 -83 -77 -125 -93 -35 -13 -201 -41 -445 -76 -215 -30 -901 -132 -1525
-226 -624 -94 -1152 -171 -1172 -171 -58 0 -259 39 -350 67 -46 14 -193 64
-328 111 -270 93 -415 133 -807 222 -144 33 -283 69 -308 80 -26 11 -88 49
-138 84 -51 35 -137 90 -192 121 -55 32 -106 63 -114 71 -13 13 -26 231 -16
266 3 9 37 38 75 64 69 48 87 68 153 180 53 91 70 137 58 167 -5 14 -62 88
-125 164 -145 174 -212 272 -233 343 -15 52 -15 62 2 146 9 49 26 118 37 153
25 78 18 122 -26 177 -52 63 -59 82 -47 117 18 51 13 95 -29 262 -57 224 -54
254 31 331 77 70 191 110 494 176 148 32 221 24 680 -70 215 -44 491 -100 614
-126 249 -51 335 -63 345 -47 17 29 -140 74 -509 146 -494 96 -864 151 -1129
166 -199 12 -217 14 -646 86 -373 63 -656 100 -1095 144 -653 65 -682 75 -964
329 l-83 75 7 46 c3 25 10 88 14 140 5 52 11 102 15 111 4 8 35 32 69 52 87
51 114 80 153 161 56 116 43 170 -72 291 -53 56 -79 96 -131 201 -88 177 -90
180 -188 200 -94 19 -291 13 -1219 -36 -308 -17 -627 -30 -710 -30 -186 0
-206 8 -297 109 -35 39 -103 99 -151 132 -48 33 -93 69 -98 80 -13 24 33 280
57 316 8 12 47 44 86 71 79 55 114 90 170 168 61 85 58 94 -91 247 -133 138
-134 139 -229 347 -43 94 -48 112 -48 177 0 64 4 79 43 153 23 45 42 83 42 85
0 1 -20 0 -45 -3 -32 -3 -46 -1 -50 9 -3 8 -7 86 -9 174 -4 159 -4 161 -46
274 -37 101 -42 122 -38 176 7 75 33 129 91 182 54 49 179 115 296 154 172 58
292 67 2496 184 1502 79 1245 61 2895 205 1103 97 1314 118 1745 175 778 104
1927 261 2301 315 189 28 381 51 426 52 66 1 71 2 28 5 -38 3 -50 7 -40 13 22
14 -225 12 -707 -5 -230 -8 -848 -26 -1373 -40 -2418 -63 -3008 -82 -3510
-111 -664 -37 -1169 -93 -2730 -299 -393 -52 -1010 -133 -1370 -180 -360 -47
-1130 -148 -1710 -225 -1105 -146 -1401 -184 -1512 -195 l-67 -7 -63 57 c-90
83 -202 152 -283 176 -84 26 -97 38 -83 82 6 18 14 82 18 143 4 61 13 120 19
132 8 14 34 28 79 42 119 36 140 48 156 94 25 69 58 190 58 212 0 12 -22 50
-49 85 -27 35 -64 88 -83 117 -21 34 -52 65 -84 86 -55 35 -54 34 -85 201 -4
22 -26 71 -48 108 -23 38 -45 82 -48 99 -16 73 24 136 132 204 29 19 53 38 53
43 0 5 -17 12 -37 16 -95 17 -126 67 -142 225 -6 58 -20 148 -31 200 -11 52
-20 115 -20 141 0 98 96 218 226 279 67 32 153 51 314 68 52 6 145 24 205 41
176 49 460 89 2315 326 1119 143 1776 228 3090 400 1603 210 1518 201 1985
215 360 11 472 18 840 49 517 45 1583 91 2560 111 499 10 3017 4 3770 -10z"/>
<path d="M18268 15563 c94 -2 250 -2 345 0 94 1 17 3 -173 3 -190 0 -267 -2
-172 -3z"/>
<path d="M19893 15563 c75 -2 199 -2 275 0 75 1 13 3 -138 3 -151 0 -213 -2
-137 -3z"/>
<path d="M17648 15553 c56 -2 148 -2 205 0 56 1 10 3 -103 3 -113 0 -159 -2
-102 -3z"/>
<path d="M20463 15553 c37 -2 97 -2 135 0 37 2 6 3 -68 3 -74 0 -105 -1 -67
-3z"/>
<path d="M17193 15543 c48 -2 125 -2 170 0 45 1 6 3 -88 3 -93 0 -130 -2 -82
-3z"/>
<path d="M20727 15543 c18 -2 50 -2 70 0 21 2 7 4 -32 4 -38 0 -55 -2 -38 -4z"/>
<path d="M16803 15533 c43 -2 110 -2 150 0 40 1 5 3 -78 3 -82 0 -115 -2 -72
-3z"/>
<path d="M20878 15533 c18 -2 45 -2 60 0 15 2 0 4 -33 4 -33 0 -45 -2 -27 -4z"/>
<path d="M16478 15523 c34 -2 90 -2 125 0 34 2 6 3 -63 3 -69 0 -97 -1 -62 -3z"/>
<path d="M21013 15523 c15 -2 39 -2 55 0 15 2 2 4 -28 4 -30 0 -43 -2 -27 -4z"/>
<path d="M16188 15513 c34 -2 88 -2 120 0 31 2 3 3 -63 3 -66 0 -92 -1 -57 -3z"/>
<path d="M21143 15513 c15 -2 37 -2 50 0 12 2 0 4 -28 4 -27 0 -38 -2 -22 -4z"/>
<path d="M15918 15503 c28 -2 76 -2 105 0 28 2 5 3 -53 3 -58 0 -81 -1 -52 -3z"/>
<path d="M21263 15503 c15 -2 37 -2 50 0 12 2 0 4 -28 4 -27 0 -38 -2 -22 -4z"/>
<path d="M21383 15493 c15 -2 37 -2 50 0 12 2 0 4 -28 4 -27 0 -38 -2 -22 -4z"/>
<path d="M21503 15483 c15 -2 37 -2 50 0 12 2 0 4 -28 4 -27 0 -38 -2 -22 -4z"/>
<path d="M21613 15473 c15 -2 37 -2 50 0 12 2 0 4 -28 4 -27 0 -38 -2 -22 -4z"/>
<path d="M21723 15463 c15 -2 37 -2 50 0 12 2 0 4 -28 4 -27 0 -38 -2 -22 -4z"/>
<path d="M21833 15453 c15 -2 37 -2 50 0 12 2 0 4 -28 4 -27 0 -38 -2 -22 -4z"/>
<path d="M21943 15443 c15 -2 37 -2 50 0 12 2 0 4 -28 4 -27 0 -38 -2 -22 -4z"/>
<path d="M22048 15433 c12 -2 32 -2 45 0 12 2 2 4 -23 4 -25 0 -35 -2 -22 -4z"/>
<path d="M22148 15423 c12 -2 32 -2 45 0 12 2 2 4 -23 4 -25 0 -35 -2 -22 -4z"/>
<path d="M22258 15413 c12 -2 32 -2 45 0 12 2 2 4 -23 4 -25 0 -35 -2 -22 -4z"/>
<path d="M22358 15403 c12 -2 30 -2 40 0 9 3 -1 5 -23 4 -22 0 -30 -2 -17 -4z"/>
<path d="M22458 15393 c12 -2 30 -2 40 0 9 3 -1 5 -23 4 -22 0 -30 -2 -17 -4z"/>
<path d="M22548 15383 c12 -2 30 -2 40 0 9 3 -1 5 -23 4 -22 0 -30 -2 -17 -4z"/>
<path d="M22648 15373 c12 -2 30 -2 40 0 9 3 -1 5 -23 4 -22 0 -30 -2 -17 -4z"/>
<path d="M22728 15363 c12 -2 32 -2 45 0 12 2 2 4 -23 4 -25 0 -35 -2 -22 -4z"/>
<path d="M22823 15353 c9 -2 25 -2 35 0 9 3 1 5 -18 5 -19 0 -27 -2 -17 -5z"/>
<path d="M22908 15343 c12 -2 30 -2 40 0 9 3 -1 5 -23 4 -22 0 -30 -2 -17 -4z"/>
<path d="M22988 15333 c12 -2 30 -2 40 0 9 3 -1 5 -23 4 -22 0 -30 -2 -17 -4z"/>
<path d="M15008 12453 c7 -3 16 -2 19 1 4 3 -2 6 -13 5 -11 0 -14 -3 -6 -6z"/>
<path d="M14948 12443 c7 -3 16 -2 19 1 4 3 -2 6 -13 5 -11 0 -14 -3 -6 -6z"/>
<path d="M14898 12433 c7 -3 16 -2 19 1 4 3 -2 6 -13 5 -11 0 -14 -3 -6 -6z"/>
<path d="M14828 12423 c6 -2 18 -2 25 0 6 3 1 5 -13 5 -14 0 -19 -2 -12 -5z"/>
<path d="M14768 12413 c7 -3 16 -2 19 1 4 3 -2 6 -13 5 -11 0 -14 -3 -6 -6z"/>
<path d="M14698 12403 c6 -2 18 -2 25 0 6 3 1 5 -13 5 -14 0 -19 -2 -12 -5z"/>
<path d="M14628 12393 c6 -2 18 -2 25 0 6 3 1 5 -13 5 -14 0 -19 -2 -12 -5z"/>
<path d="M14548 12383 c6 -2 18 -2 25 0 6 3 1 5 -13 5 -14 0 -19 -2 -12 -5z"/>
<path d="M14478 12373 c6 -2 18 -2 25 0 6 3 1 5 -13 5 -14 0 -19 -2 -12 -5z"/>
<path d="M14398 12363 c6 -2 18 -2 25 0 6 3 1 5 -13 5 -14 0 -19 -2 -12 -5z"/>
<path d="M14313 12353 c9 -2 23 -2 30 0 6 3 -1 5 -18 5 -16 0 -22 -2 -12 -5z"/>
<path d="M14223 12343 c9 -2 23 -2 30 0 6 3 -1 5 -18 5 -16 0 -22 -2 -12 -5z"/>
<path d="M14133 12333 c9 -2 23 -2 30 0 6 3 -1 5 -18 5 -16 0 -22 -2 -12 -5z"/>
<path d="M14033 12323 c9 -2 23 -2 30 0 6 3 -1 5 -18 5 -16 0 -22 -2 -12 -5z"/>
<path d="M13943 12313 c9 -2 23 -2 30 0 6 3 -1 5 -18 5 -16 0 -22 -2 -12 -5z"/>
<path d="M13843 12303 c9 -2 23 -2 30 0 6 3 -1 5 -18 5 -16 0 -22 -2 -12 -5z"/>
<path d="M13743 12293 c9 -2 23 -2 30 0 6 3 -1 5 -18 5 -16 0 -22 -2 -12 -5z"/>
<path d="M13633 12283 c9 -2 25 -2 35 0 9 3 1 5 -18 5 -19 0 -27 -2 -17 -5z"/>
<path d="M13533 12273 c9 -2 25 -2 35 0 9 3 1 5 -18 5 -19 0 -27 -2 -17 -5z"/>
<path d="M13433 12263 c9 -2 23 -2 30 0 6 3 -1 5 -18 5 -16 0 -22 -2 -12 -5z"/>
<path d="M13323 12253 c9 -2 25 -2 35 0 9 3 1 5 -18 5 -19 0 -27 -2 -17 -5z"/>
<path d="M13213 12243 c9 -2 25 -2 35 0 9 3 1 5 -18 5 -19 0 -27 -2 -17 -5z"/>
<path d="M13113 12233 c9 -2 23 -2 30 0 6 3 -1 5 -18 5 -16 0 -22 -2 -12 -5z"/>
<path d="M13003 12223 c9 -2 25 -2 35 0 9 3 1 5 -18 5 -19 0 -27 -2 -17 -5z"/>
<path d="M12893 12213 c9 -2 25 -2 35 0 9 3 1 5 -18 5 -19 0 -27 -2 -17 -5z"/>
<path d="M12783 12203 c9 -2 25 -2 35 0 9 3 1 5 -18 5 -19 0 -27 -2 -17 -5z"/>
<path d="M12683 12193 c9 -2 23 -2 30 0 6 3 -1 5 -18 5 -16 0 -22 -2 -12 -5z"/>
<path d="M12573 12183 c9 -2 23 -2 30 0 6 3 -1 5 -18 5 -16 0 -22 -2 -12 -5z"/>
<path d="M12463 12173 c9 -2 25 -2 35 0 9 3 1 5 -18 5 -19 0 -27 -2 -17 -5z"/>
<path d="M12353 12163 c9 -2 25 -2 35 0 9 3 1 5 -18 5 -19 0 -27 -2 -17 -5z"/>
<path d="M12243 12153 c9 -2 25 -2 35 0 9 3 1 5 -18 5 -19 0 -27 -2 -17 -5z"/>
<path d="M12133 12143 c9 -2 25 -2 35 0 9 3 1 5 -18 5 -19 0 -27 -2 -17 -5z"/>
<path d="M12023 12133 c9 -2 25 -2 35 0 9 3 1 5 -18 5 -19 0 -27 -2 -17 -5z"/>
<path d="M11913 12123 c9 -2 25 -2 35 0 9 3 1 5 -18 5 -19 0 -27 -2 -17 -5z"/>
<path d="M11803 12113 c9 -2 25 -2 35 0 9 3 1 5 -18 5 -19 0 -27 -2 -17 -5z"/>
<path d="M11693 12103 c9 -2 25 -2 35 0 9 3 1 5 -18 5 -19 0 -27 -2 -17 -5z"/>
<path d="M11583 12093 c9 -2 25 -2 35 0 9 3 1 5 -18 5 -19 0 -27 -2 -17 -5z"/>
<path d="M11473 12083 c9 -2 25 -2 35 0 9 3 1 5 -18 5 -19 0 -27 -2 -17 -5z"/>
<path d="M11363 12073 c9 -2 25 -2 35 0 9 3 1 5 -18 5 -19 0 -27 -2 -17 -5z"/>
<path d="M11253 12063 c9 -2 25 -2 35 0 9 3 1 5 -18 5 -19 0 -27 -2 -17 -5z"/>
<path d="M11143 12053 c9 -2 25 -2 35 0 9 3 1 5 -18 5 -19 0 -27 -2 -17 -5z"/>
<path d="M11033 12043 c9 -2 25 -2 35 0 9 3 1 5 -18 5 -19 0 -27 -2 -17 -5z"/>
<path d="M10933 12033 c9 -2 23 -2 30 0 6 3 -1 5 -18 5 -16 0 -22 -2 -12 -5z"/>
<path d="M10823 12023 c9 -2 23 -2 30 0 6 3 -1 5 -18 5 -16 0 -22 -2 -12 -5z"/>
<path d="M10713 12013 c9 -2 25 -2 35 0 9 3 1 5 -18 5 -19 0 -27 -2 -17 -5z"/>
<path d="M10603 12003 c9 -2 25 -2 35 0 9 3 1 5 -18 5 -19 0 -27 -2 -17 -5z"/>
<path d="M10493 11993 c9 -2 25 -2 35 0 9 3 1 5 -18 5 -19 0 -27 -2 -17 -5z"/>
<path d="M10383 11983 c9 -2 25 -2 35 0 9 3 1 5 -18 5 -19 0 -27 -2 -17 -5z"/>
<path d="M10273 11973 c9 -2 25 -2 35 0 9 3 1 5 -18 5 -19 0 -27 -2 -17 -5z"/>
<path d="M10173 11963 c9 -2 23 -2 30 0 6 3 -1 5 -18 5 -16 0 -22 -2 -12 -5z"/>
<path d="M10063 11953 c9 -2 25 -2 35 0 9 3 1 5 -18 5 -19 0 -27 -2 -17 -5z"/>
<path d="M9953 11943 c9 -2 25 -2 35 0 9 3 1 5 -18 5 -19 0 -27 -2 -17 -5z"/>
<path d="M9853 11933 c9 -2 23 -2 30 0 6 3 -1 5 -18 5 -16 0 -22 -2 -12 -5z"/>
<path d="M9743 11923 c9 -2 25 -2 35 0 9 3 1 5 -18 5 -19 0 -27 -2 -17 -5z"/>
<path d="M9633 11913 c9 -2 25 -2 35 0 9 3 1 5 -18 5 -19 0 -27 -2 -17 -5z"/>
<path d="M9533 11903 c9 -2 23 -2 30 0 6 3 -1 5 -18 5 -16 0 -22 -2 -12 -5z"/>
<path d="M9433 11893 c9 -2 23 -2 30 0 6 3 -1 5 -18 5 -16 0 -22 -2 -12 -5z"/>
<path d="M9323 11883 c9 -2 25 -2 35 0 9 3 1 5 -18 5 -19 0 -27 -2 -17 -5z"/>
<path d="M9223 11873 c9 -2 23 -2 30 0 6 3 -1 5 -18 5 -16 0 -22 -2 -12 -5z"/>
<path d="M9123 11863 c9 -2 23 -2 30 0 6 3 -1 5 -18 5 -16 0 -22 -2 -12 -5z"/>
<path d="M9023 11853 c9 -2 23 -2 30 0 6 3 -1 5 -18 5 -16 0 -22 -2 -12 -5z"/>
<path d="M8923 11843 c9 -2 23 -2 30 0 6 3 -1 5 -18 5 -16 0 -22 -2 -12 -5z"/>
<path d="M8813 11833 c9 -2 25 -2 35 0 9 3 1 5 -18 5 -19 0 -27 -2 -17 -5z"/>
<path d="M8703 11823 c9 -2 25 -2 35 0 9 3 1 5 -18 5 -19 0 -27 -2 -17 -5z"/>
<path d="M8588 11813 c12 -2 30 -2 40 0 9 3 -1 5 -23 4 -22 0 -30 -2 -17 -4z"/>
<path d="M8438 11803 c12 -2 32 -2 45 0 12 2 2 4 -23 4 -25 0 -35 -2 -22 -4z"/>
<path d="M8233 11793 c20 -2 54 -2 75 0 20 2 3 4 -38 4 -41 0 -58 -2 -37 -4z"/>
</g>
</svg>
